<?xml version="1.0" encoding="UTF-8" standalone="no"?>
<!-- Created with Inkscape (http://www.inkscape.org/) -->

<svg
   xmlns:dc="http://purl.org/dc/elements/1.1/"
   xmlns:cc="http://creativecommons.org/ns#"
   xmlns:rdf="http://www.w3.org/1999/02/22-rdf-syntax-ns#"
   xmlns:svg="http://www.w3.org/2000/svg"
   xmlns="http://www.w3.org/2000/svg"
   xmlns:sodipodi="http://sodipodi.sourceforge.net/DTD/sodipodi-0.dtd"
   xmlns:inkscape="http://www.inkscape.org/namespaces/inkscape"
   width="434.23526mm"
   height="128.19994mm"
   viewBox="0 0 434.23526 128.19994"
   version="1.1"
   id="svg943"
   inkscape:version="0.92.3 (2405546, 2018-03-11)"
   sodipodi:docname="Go-Jek.svg">
  <defs
     id="defs937" />
  <sodipodi:namedview
     id="base"
     pagecolor="#ffffff"
     bordercolor="#666666"
     borderopacity="1.0"
     inkscape:pageopacity="0.0"
     inkscape:pageshadow="2"
     inkscape:zoom="0.35"
     inkscape:cx="838.33586"
     inkscape:cy="-171.84772"
     inkscape:document-units="mm"
     inkscape:current-layer="g1586"
     showgrid="false"
     fit-margin-top="0"
     fit-margin-left="0"
     fit-margin-right="0"
     fit-margin-bottom="0"
     inkscape:window-width="1366"
     inkscape:window-height="745"
     inkscape:window-x="-8"
     inkscape:window-y="-8"
     inkscape:window-maximized="1" />
  <metadata
     id="metadata940">
    <rdf:RDF>
      <cc:Work
         rdf:about="">
        <dc:format>image/svg+xml</dc:format>
        <dc:type
           rdf:resource="http://purl.org/dc/dcmitype/StillImage" />
        <dc:title></dc:title>
      </cc:Work>
    </rdf:RDF>
  </metadata>
  <g
     inkscape:label="Layer 1"
     inkscape:groupmode="layer"
     id="layer1"
     transform="translate(-0.46122683,-168.58336)">
    <g
       id="g1586"
       transform="matrix(4.7873342,0,0,4.7884067,-460.9407,-504.03536)">
      <g
         id="g1564">
        <path
           id="path1554"
           style="fill:#000000;fill-rule:evenodd"
           d="m 115.2257,156.8651 c 0,-2.0512 0.5791,-3.8664 2.7492,-3.8664 2.3018,0 2.9091,1.5234 2.9091,3.7935 0,2.6827 0.5238,6.7709 -2.6906,6.7709 -3.4872,0 -2.9677,-3.6612 -2.9677,-6.698 z m -3.9411,3.8609 c 0.1932,1.4495 0.2688,1.8969 0.8317,3.0826 1.4356,3.0243 4.9199,3.5962 8.1675,2.9285 3.3,-0.6784 4.5472,-3.9538 4.5446,-7.0309 -0.001,-1.1505 0.0888,-2.7406 -0.0276,-3.8268 -0.1504,-1.4043 -0.2772,-2.056 -0.8152,-3.1337 -0.4403,-0.882 -1.0361,-1.5465 -1.7874,-2.0776 -2.67,-1.8878 -10.9244,-2.4633 -10.9515,6.197 -0.003,1.0889 -0.0976,2.8447 0.0379,3.8609 z"
           inkscape:connector-curvature="0" />
        <path
           id="path1556"
           style="fill:#000000;fill-rule:evenodd"
           d="m 173.7601,150.1323 c -0.1056,1.4278 -0.0876,16.2839 0.0481,16.6116 0.2266,0.3592 0.642,0.2519 1.2071,0.2511 0.4856,-6e-4 0.9715,-0.001 1.457,1e-4 1.4009,0.003 1.2277,-0.0147 1.2277,-1.6796 -10e-5,-1.9589 -0.0432,-3.967 0.006,-5.9198 0.3334,0.12 0.7071,0.9395 0.8886,1.2472 0.2898,0.4913 0.536,0.87 0.8053,1.3033 l 2.4179,3.9326 c 0.2345,0.3918 0.5208,1.0622 0.9888,1.1143 0.5251,0.0586 3.965,0.049 4.2287,-0.0731 0.2731,-0.2645 -0.9168,-1.8084 -1.2031,-2.2234 l -4.2516,-6.4475 c 0.3879,-0.7 4.0963,-5.7901 4.9848,-7.0932 0.1926,-0.2825 0.674,-0.7279 0.4699,-1.1519 -0.3007,-0.1062 -3.7089,-0.1437 -4.0568,-0.0269 -0.3374,0.1132 -3.2199,4.5946 -3.4809,4.9674 l -1.2682,1.8547 c -0.2897,0.4197 -0.2417,0.4983 -0.5234,0.592 -0.0534,-1.8986 -0.006,-3.8652 -0.006,-5.7712 0,-1.8833 0.4699,-1.6859 -2.6847,-1.6913 -1.5296,-0.002 -0.8425,0.0882 -1.2552,0.2036 z"
           inkscape:connector-curvature="0" />
        <path
           id="path1558"
           style="fill:#000000;fill-rule:evenodd"
           d="m 104.7295,158.0258 c -0.1044,1.2034 -0.021,2.7692 -0.021,4.0115 0,1.5988 0.1533,1.5269 -0.4952,1.546 -0.62,0.0183 -1.3551,0.0791 -1.9065,-0.0731 -2.2156,-0.6116 -1.938,-3.6124 -1.9399,-5.9895 -0.002,-2.9873 0.3322,-4.5259 3.4025,-4.5222 5.1167,0.006 4.7962,0.7692 4.7927,-0.8686 -0.001,-0.5487 0.0519,-1.4187 -0.0313,-1.9274 -0.3896,-0.2407 -2.3353,-0.4982 -2.9406,-0.5622 -2.9889,-0.3159 -6.106,-0.1048 -7.9075,2.3766 -1.176,1.6195 -1.3004,3.3562 -1.3003,5.7223 10e-5,2.3646 -0.098,4.2146 0.8835,6.0664 1.8931,3.5716 5.8312,3.5468 10.3422,2.8046 0.6025,-0.0991 0.9421,-0.1021 0.9573,-0.7798 l -0.003,-5.1773 c 0,-3.337 0.4219,-2.8516 -2.3886,-2.8518 -0.6764,-1e-4 -1.0332,-0.1158 -1.4439,0.2245 z"
           inkscape:connector-curvature="0" />
        <path
           id="path1560"
           style="fill:#000000;fill-rule:evenodd"
           d="m 164.2781,156.6744 c -0.0415,-0.7325 -0.0503,-2.0007 0.0679,-2.6411 0.1624,-0.8793 0.8604,-0.9138 1.7818,-0.919 0.8977,-0.005 1.7974,5e-4 2.6954,5e-4 1.4182,0 2.0423,0.2158 2.0423,-0.6206 0,-2.0832 0.2292,-2.4145 -0.6588,-2.5049 -0.4214,-0.0428 -0.7179,-0.1142 -1.1649,-0.1363 -4.0778,-0.2013 -8.7248,-0.8657 -8.7248,5.0452 v 7.212 c 0,5.8944 4.9647,5.1716 9.1638,4.9114 1.1113,-0.0689 1.3847,-0.1145 1.3847,-0.7591 0,-2.8064 0.2165,-2.5118 -1.5324,-2.5116 -0.7284,1e-4 -1.4569,0 -2.1855,0 -1.6078,0 -2.8783,0.3436 -2.8783,-1.4951 0,-2.6945 -0.1962,-2.407 0.691,-2.3967 l 4.5915,0.002 c 0.6476,0.003 1.1592,0.1087 1.1592,-0.6652 0,-2.6289 0.1979,-2.4835 -1.1593,-2.4793 -1.0318,0.003 -4.7625,0.0712 -5.2736,-0.0425 z"
           inkscape:connector-curvature="0" />
        <path
           id="path1562"
           style="fill:#000000;fill-rule:evenodd"
           d="m 150.9591,163.6955 c -0.0967,0.1648 -0.0408,0.0143 -0.0771,0.2374 l 0.0188,1.7468 c 0.003,0.9589 -0.1707,1.4891 0.4327,1.537 0.8413,0.0667 3.0205,-0.0107 3.7823,-0.1397 1.1339,-0.1919 1.9487,-0.719 2.1999,-1.7744 0.246,-1.0332 0.1235,-10.242 0.1235,-11.7157 0,-4.2154 0.4815,-3.5832 -2.3116,-3.5784 -0.8465,0.001 -1.2577,-0.1462 -1.8545,0.116 -0.1311,0.7079 -0.0115,10.2438 -0.0134,11.9857 -7e-4,0.638 0.0904,0.9998 -0.2142,1.4769 -0.5347,0.0502 -1.5937,-0.0488 -1.9144,0.0307 -0.2308,0.0571 -0.089,0.0186 -0.172,0.0777 z"
           inkscape:connector-curvature="0" />
      </g>
      <g
         id="g1584">
        <path
           id="path1566"
           style="fill:#acce22;fill-rule:evenodd"
           d="m 127.4834,164.0883 -0.1378,-0.983 -0.4071,-0.0616 c -0.2415,-0.008 -0.2699,-0.005 -0.5107,-0.059 0.147,0.2109 -0.1303,0.0502 0.1737,0.1794 l 0.6996,0.0162 c 0.0216,0.4208 -0.039,0.7753 0.1823,0.908 z"
           inkscape:connector-curvature="0" />
        <g
           id="g1576">
          <path
             id="path1568"
             style="fill:#acce22;fill-rule:evenodd"
             d="m 128.6708,163.1922 c 1.7334,0.0565 0.5991,0.2232 1.3697,1.0572 0.2264,0.245 0.5871,0.44 0.9847,0.4634 0.8943,0.0528 1.3519,-0.5859 1.5137,-1.3631 l 0.9385,0.0796 c 0.0242,0.5974 -0.4341,1.2435 -0.733,1.5045 -1.7047,1.4888 -4.0769,0.2017 -4.0736,-1.7416 z m 3.762,-0.4101 c -0.3144,-0.6873 -0.411,-0.3218 -0.3515,-0.8094 0.029,-0.2375 0.217,-0.6238 0.3905,-0.7714 0.5303,0.2117 0.9389,0.9215 0.9835,1.606 z m 12.2503,-1.7935 c 2.8581,-0.7355 4.2982,2.9624 1.9995,4.3966 -1.1487,0.7166 -2.5479,0.3187 -3.256,-0.6072 -1.0258,-1.3415 -0.1883,-3.0488 0.3367,-3.1755 0.1565,0.1119 0.4974,0.7385 0.4565,0.9024 -0.0475,0.1903 -0.3983,0.4539 -0.2514,1.2018 0.1469,0.7488 1.0778,1.2839 1.9145,0.8171 0.6597,-0.368 0.9323,-1.3401 0.3249,-2.0155 -0.6703,-0.7453 -0.743,0.0799 -1.3092,-0.8756 -0.137,-0.2311 -0.2192,-0.3688 -0.2155,-0.6441 z m -15.8783,1.644 c -0.0246,-0.785 0.7316,-1.4541 1.3187,-1.707 1.9149,-0.8248 1.2644,0.6902 1.0235,0.8764 -0.2486,0.1504 -0.5696,0.0969 -0.9065,0.3384 -0.5528,0.3963 -0.0134,0.5744 -1.4357,0.4922 z m 8.0679,-5.6628 c -0.0736,-0.2483 -0.309,-0.458 -0.3691,-0.7131 -0.0981,-0.4165 0.7924,-2.1975 0.849,-2.2773 0.1989,0.0509 0.6144,0.3917 0.889,0.5463 0.3007,0.169 0.5788,0.3055 0.9136,0.4624 0.6151,0.2879 1.5079,0.4957 2.037,0.7939 0.0194,0.3332 0.0719,0.3818 -0.2638,0.4118 -0.1743,0.0155 -0.4691,-0.0101 -0.6639,-0.005 -0.6974,0.0187 -1.6876,0.2181 -2.3654,0.4304 -0.3539,0.1108 -0.6235,0.2855 -1.0264,0.3505 z m -10.4449,6.0149 c 0.2408,0.0544 0.2692,0.0511 0.5107,0.059 l 0.4071,0.0616 0.1378,0.983 c -0.0429,0.7717 0.8253,1.7307 1.2545,2.1164 1.4458,1.2997 4.5095,1.1562 5.7132,-1.2425 0.0868,-0.173 0.1838,-0.4148 0.2442,-0.6395 0.0565,-0.21 0.0391,-0.516 0.1557,-0.6322 0.2753,-0.288 3.3968,0.0967 4.2472,-0.1993 0.7364,-0.2564 0.8451,-0.4961 0.8694,-1.3803 0.0158,-0.5692 -0.0311,-1.6064 0.1259,-2.0625 1.11,-0.0228 1.3257,0.0532 2.0671,-1.1115 0.2633,0.0827 0.3736,0.4882 0.5035,0.7013 0.1472,0.2416 0.3356,0.5112 0.4064,0.7964 -0.1835,0.2976 -0.5656,0.5701 -0.8173,0.9716 -0.2125,0.3389 -0.4196,0.7663 -0.4992,1.2316 -0.7793,4.557 5.4392,6.1131 7.029,2.0176 0.8807,-2.2689 -0.7929,-4.8652 -3.2695,-4.9153 -0.6467,-0.013 -1.0839,0.1706 -1.5059,0.1624 -0.2154,-0.5246 -0.6799,-1.1309 -0.6836,-1.6541 l 0.8646,-0.0117 c 0.0946,-0.2631 0.2565,-2.0037 -0.1339,-2.447 -0.6285,0.005 -1.5969,0.6112 -2.0529,0.4381 -0.0447,-0.2986 0.003,-0.4593 -0.0996,-0.7632 -0.1644,-0.4857 -0.8166,0.1013 -2.4013,-1.3361 -0.3415,-0.3098 -0.5963,-0.5026 -0.9605,-0.7833 -0.2467,-0.1901 -0.7558,-0.5825 -1.0173,-0.7289 0.3436,-0.3876 0.4325,-0.0839 1.0018,-0.4848 0.9189,-0.6472 0.9821,-2.0329 0.0255,-2.7258 -1.3832,-1.0019 -3.2446,0.4501 -2.505,2.0685 -0.0155,0.0123 -0.0406,0.0218 -0.0528,0.0279 l -0.1568,0.0751 c -0.3496,0.1768 -0.4597,0.5753 -0.71,1.081 -0.2441,0.4932 -1.7237,3.2613 -1.7343,3.625 -0.0116,0.3929 0.19,0.4416 0.2661,0.6732 -0.8808,0.1323 -1.7373,0.0445 -2.6483,0.1044 -0.888,0.0584 -0.6866,1.2877 -1.1267,1.6659 -0.1253,0.108 -0.3212,0.1011 -0.5279,0.1942 -1.005,0.4522 -2.3331,1.8756 -2.394,2.5336 0.4732,0.4735 0.4858,0.1481 0.3865,1.0859 l -0.9253,0.0182 z"
             inkscape:connector-curvature="0" />
          <path
             id="path1570"
             style="fill:#acce22;fill-rule:evenodd"
             d="m 137.4254,141.6948 c 4.464,0.007 7.3192,2.6997 7.5763,2.7391 0.4224,-0.0675 0.7299,-0.2441 0.7377,-0.7544 -0.406,-0.8334 -2.5973,-1.8506 -3.4677,-2.2331 -3.8806,-1.7054 -8.2814,-1.0333 -11.8907,0.8777 l -1.3782,0.8029 c -0.5147,0.3939 0.0419,1.1998 0.6768,1.0308 0.1489,-0.0396 0.7175,-0.4381 0.901,-0.5455 1.9183,-1.1226 4.4904,-1.9213 6.8448,-1.9175 z"
             inkscape:connector-curvature="0" />
          <path
             id="path1572"
             style="fill:#acce22;fill-rule:evenodd"
             d="m 131.0772,146.4434 c 0.5373,0.0463 0.9234,-0.3427 1.3157,-0.5771 1.6174,-0.9664 3.2876,-1.3413 5.2511,-1.3413 1.3132,0 2.1055,0.3189 3.1149,0.7091 0.3429,0.1326 0.9457,0.4796 1.2409,0.6545 1.233,0.7299 0.883,1.0994 1.718,0.4559 0.008,-0.5711 -0.5431,-0.8865 -1.1344,-1.2715 -3.3741,-2.1967 -7.5447,-2.0015 -10.9309,0.1188 -0.1504,0.0942 -0.5903,0.3536 -0.7078,0.4613 -0.3493,0.32 -0.0731,0.5637 0.1325,0.7903 z"
             inkscape:connector-curvature="0" />
          <path
             id="path1574"
             style="fill:#acce22;fill-rule:evenodd"
             d="m 133.2002,148.514 c 0.3911,0.0394 0.5902,-0.2086 0.9156,-0.4191 0.259,-0.1674 0.6117,-0.349 0.9075,-0.4779 1.9252,-0.8391 3.7613,-0.642 5.4692,0.5703 0.3519,0.2498 0.5396,0.622 0.9396,0.3543 0.6183,-0.65 -2.1457,-2.2128 -3.9338,-2.2128 -1.1878,0 -1.8471,0.1638 -2.9903,0.6891 -0.406,0.1868 -0.6772,0.3741 -1.0092,0.5976 -0.5204,0.3504 -0.6668,0.3265 -0.2986,0.8985 z"
             inkscape:connector-curvature="0" />
        </g>
        <path
           id="path1578"
           style="fill:#acce22;fill-rule:evenodd"
           d="m 138.7162,164.1199 v 0.1594 h 2.5612 v -0.1594 z"
           inkscape:connector-curvature="0" />
        <path
           id="path1580"
           style="fill:#acce22;fill-rule:evenodd"
           d="m 137.7031,165.1671 v 0.1594 h 3.7905 v -0.1594 z"
           inkscape:connector-curvature="0" />
        <path
           id="path1582"
           style="fill:#acce22;fill-rule:evenodd"
           d="m 136.2916,166.2143 v 0.1594 h 5.8736 v -0.1594 z"
           inkscape:connector-curvature="0" />
      </g>
    </g>
  </g>
</svg>
